<?xml version="1.0" encoding="UTF-8" standalone="no"?>
<!DOCTYPE svg PUBLIC "-//W3C//DTD SVG 1.1//EN"
 "http://www.w3.org/Graphics/SVG/1.1/DTD/svg11.dtd">
<!-- Generated by graphviz version 15.1.0 (0)
 -->
<!-- Title: lve::FirstApp Pages: 1 -->
<svg width="76pt" height="79pt"
 viewBox="0.00 0.00 76.00 79.00" xmlns="http://www.w3.org/2000/svg" xmlns:xlink="http://www.w3.org/1999/xlink">
<g id="graph0" class="graph" transform="scale(1 1) rotate(0) translate(4 75)">
<title>lve::FirstApp</title>
<!-- Node1 -->
<g id="Node000001" class="node">
<title>Node1</title>
<g id="a_Node000001"><a xlink:title=" ">
<polygon fill="#999999" stroke="none" points="68,-71 0,-71 0,0 68,0 68,-71"/>
<text xml:space="preserve" text-anchor="start" x="4" y="-57.25" font-family="Helvetica,sans-Serif" font-size="10.00">lve::FirstApp</text>
<text xml:space="preserve" text-anchor="start" x="6.56" y="-40.5" font-family="Helvetica,sans-Serif" font-size="10.00">+</text>
<text xml:space="preserve" text-anchor="start" x="21.38" y="-40.5" font-family="Helvetica,sans-Serif" font-size="10.00">WIDTH</text>
<text xml:space="preserve" text-anchor="start" x="6.56" y="-23.75" font-family="Helvetica,sans-Serif" font-size="10.00">+</text>
<text xml:space="preserve" text-anchor="start" x="21.38" y="-23.75" font-family="Helvetica,sans-Serif" font-size="10.00">HEIGHT</text>
<text xml:space="preserve" text-anchor="start" x="6.56" y="-7" font-family="Helvetica,sans-Serif" font-size="10.00">+</text>
<text xml:space="preserve" text-anchor="start" x="21.38" y="-7" font-family="Helvetica,sans-Serif" font-size="10.00">run()</text>
<polygon fill="#666666" stroke="#666666" points="0,-52.25 0,-52.25 68,-52.25 68,-52.25 0,-52.25"/>
<polygon fill="#666666" stroke="#666666" points="0,-18.75 0,-18.75 19.38,-18.75 19.38,-18.75 0,-18.75"/>
<polygon fill="#666666" stroke="#666666" points="19.38,-18.75 19.38,-18.75 68,-18.75 68,-18.75 19.38,-18.75"/>
<polygon fill="none" stroke="#666666" points="0,0 0,-71 68,-71 68,0 0,0"/>
</a>
</g>
</g>
</g>
</svg>
