<?xml version="1.0" encoding="UTF-8" standalone="no"?>
<!DOCTYPE svg PUBLIC "-//W3C//DTD SVG 1.1//EN"
 "http://www.w3.org/Graphics/SVG/1.1/DTD/svg11.dtd">
<!-- Generated by graphviz version 15.1.0 (0)
 -->
<!-- Title: backends::OpenGLVertexArray Pages: 1 -->
<svg width="164pt" height="354pt"
 viewBox="0.00 0.00 164.00 354.00" xmlns="http://www.w3.org/2000/svg" xmlns:xlink="http://www.w3.org/1999/xlink">
<g id="graph0" class="graph" transform="scale(1 1) rotate(0) translate(4 349.5)">
<title>backends::OpenGLVertexArray</title>
<!-- Node1 -->
<g id="Node000001" class="node">
<title>Node1</title>
<g id="a_Node000001"><a xlink:title=" ">
<polygon fill="#999999" stroke="none" points="155.75,-154.75 0,-154.75 0,0 155.75,0 155.75,-154.75"/>
<text xml:space="preserve" text-anchor="start" x="4" y="-141" font-family="Helvetica,sans-Serif" font-size="10.00">backends::OpenGLVertexArray</text>
<text xml:space="preserve" text-anchor="start" x="74.88" y="-124.25" font-family="Helvetica,sans-Serif" font-size="10.00"> </text>
<text xml:space="preserve" text-anchor="start" x="9.94" y="-107.5" font-family="Helvetica,sans-Serif" font-size="10.00">+</text>
<text xml:space="preserve" text-anchor="start" x="28.12" y="-107.5" font-family="Helvetica,sans-Serif" font-size="10.00">OpenGLVertexArray()</text>
<text xml:space="preserve" text-anchor="start" x="9.94" y="-90.75" font-family="Helvetica,sans-Serif" font-size="10.00">+</text>
<text xml:space="preserve" text-anchor="start" x="28.12" y="-90.75" font-family="Helvetica,sans-Serif" font-size="10.00">~OpenGLVertexArray()</text>
<text xml:space="preserve" text-anchor="start" x="9.94" y="-74" font-family="Helvetica,sans-Serif" font-size="10.00">+</text>
<text xml:space="preserve" text-anchor="start" x="28.12" y="-74" font-family="Helvetica,sans-Serif" font-size="10.00">Bind()</text>
<text xml:space="preserve" text-anchor="start" x="9.94" y="-57.25" font-family="Helvetica,sans-Serif" font-size="10.00">+</text>
<text xml:space="preserve" text-anchor="start" x="28.12" y="-57.25" font-family="Helvetica,sans-Serif" font-size="10.00">Unbind()</text>
<text xml:space="preserve" text-anchor="start" x="9.94" y="-40.5" font-family="Helvetica,sans-Serif" font-size="10.00">+</text>
<text xml:space="preserve" text-anchor="start" x="28.12" y="-40.5" font-family="Helvetica,sans-Serif" font-size="10.00">AddVertexBuffer()</text>
<text xml:space="preserve" text-anchor="start" x="9.94" y="-23.75" font-family="Helvetica,sans-Serif" font-size="10.00">+</text>
<text xml:space="preserve" text-anchor="start" x="28.12" y="-23.75" font-family="Helvetica,sans-Serif" font-size="10.00">SetIndexBuffer()</text>
<text xml:space="preserve" text-anchor="start" x="9.94" y="-7" font-family="Helvetica,sans-Serif" font-size="10.00">+</text>
<text xml:space="preserve" text-anchor="start" x="28.12" y="-7" font-family="Helvetica,sans-Serif" font-size="10.00">GetIndexCount()</text>
<polygon fill="#666666" stroke="#666666" points="0,-136 0,-136 155.75,-136 155.75,-136 0,-136"/>
<polygon fill="#666666" stroke="#666666" points="0,-119.25 0,-119.25 155.75,-119.25 155.75,-119.25 0,-119.25"/>
<polygon fill="none" stroke="#666666" points="0,0 0,-154.75 155.75,-154.75 155.75,0 0,0"/>
</a>
</g>
</g>
<!-- Node2 -->
<g id="Node000002" class="node">
<title>Node2</title>
<g id="a_Node000002"><a xlink:href="classengine_1_1VertexArray.html" target="_top" xlink:title=" ">
<polygon fill="white" stroke="none" points="132.25,-345.5 23.5,-345.5 23.5,-190.75 132.25,-190.75 132.25,-345.5"/>
<text xml:space="preserve" text-anchor="start" x="29.12" y="-331.75" font-family="Helvetica,sans-Serif" font-size="10.00">engine::VertexArray</text>
<text xml:space="preserve" text-anchor="start" x="74.88" y="-315" font-family="Helvetica,sans-Serif" font-size="10.00"> </text>
<text xml:space="preserve" text-anchor="start" x="27.5" y="-298.25" font-family="Helvetica,sans-Serif" font-size="10.00">+</text>
<text xml:space="preserve" text-anchor="start" x="39.75" y="-298.25" font-family="Helvetica,sans-Serif" font-size="10.00">~VertexArray()</text>
<text xml:space="preserve" text-anchor="start" x="27.5" y="-281.5" font-family="Helvetica,sans-Serif" font-size="10.00">+</text>
<text xml:space="preserve" text-anchor="start" x="39.75" y="-281.5" font-family="Helvetica,sans-Serif" font-size="10.00">Bind()</text>
<text xml:space="preserve" text-anchor="start" x="27.5" y="-264.75" font-family="Helvetica,sans-Serif" font-size="10.00">+</text>
<text xml:space="preserve" text-anchor="start" x="39.75" y="-264.75" font-family="Helvetica,sans-Serif" font-size="10.00">Unbind()</text>
<text xml:space="preserve" text-anchor="start" x="27.5" y="-248" font-family="Helvetica,sans-Serif" font-size="10.00">+</text>
<text xml:space="preserve" text-anchor="start" x="39.75" y="-248" font-family="Helvetica,sans-Serif" font-size="10.00">AddVertexBuffer()</text>
<text xml:space="preserve" text-anchor="start" x="27.5" y="-231.25" font-family="Helvetica,sans-Serif" font-size="10.00">+</text>
<text xml:space="preserve" text-anchor="start" x="39.75" y="-231.25" font-family="Helvetica,sans-Serif" font-size="10.00">SetIndexBuffer()</text>
<text xml:space="preserve" text-anchor="start" x="27.5" y="-214.5" font-family="Helvetica,sans-Serif" font-size="10.00">+</text>
<text xml:space="preserve" text-anchor="start" x="39.75" y="-214.5" font-family="Helvetica,sans-Serif" font-size="10.00">GetIndexCount()</text>
<text xml:space="preserve" text-anchor="start" x="27.5" y="-197.75" font-family="Helvetica,sans-Serif" font-size="10.00">+</text>
<text xml:space="preserve" text-anchor="start" x="39.75" y="-197.75" font-family="Helvetica,sans-Serif" font-size="10.00">Create()</text>
<polygon fill="#bfbfbf" stroke="#bfbfbf" points="23.5,-326.75 23.5,-326.75 132.25,-326.75 132.25,-326.75 23.5,-326.75"/>
<polygon fill="#bfbfbf" stroke="#bfbfbf" points="23.5,-310 23.5,-310 132.25,-310 132.25,-310 23.5,-310"/>
<polygon fill="none" stroke="#bfbfbf" points="23.5,-190.75 23.5,-345.5 132.25,-345.5 132.25,-190.75 23.5,-190.75"/>
</a>
</g>
</g>
<!-- Node2&#45;&gt;Node1 -->
<g id="edge1_Node000001_Node000002" class="edge">
<title>Node2&#45;&gt;Node1</title>
<g id="a_edge1_Node000001_Node000002"><a xlink:title=" ">
<path fill="none" stroke="#63b8ff" d="M77.88,-179.58C77.88,-171.23 77.88,-162.81 77.88,-154.58"/>
<polygon fill="none" stroke="#63b8ff" points="74.38,-179.38 77.88,-189.38 81.38,-179.38 74.38,-179.38"/>
</a>
</g>
</g>
</g>
</svg>
