<?xml version="1.0" encoding="UTF-8" standalone="no"?>
<!DOCTYPE svg PUBLIC "-//W3C//DTD SVG 1.1//EN"
 "http://www.w3.org/Graphics/SVG/1.1/DTD/svg11.dtd">
<!-- Generated by graphviz version 15.1.0 (0)
 -->
<!-- Title: backends::OpenGLVertexBuffer Pages: 1 -->
<svg width="168pt" height="320pt"
 viewBox="0.00 0.00 168.00 320.00" xmlns="http://www.w3.org/2000/svg" xmlns:xlink="http://www.w3.org/1999/xlink">
<g id="graph0" class="graph" transform="scale(1 1) rotate(0) translate(4 316)">
<title>backends::OpenGLVertexBuffer</title>
<!-- Node1 -->
<g id="Node000001" class="node">
<title>Node1</title>
<g id="a_Node000001"><a xlink:title=" ">
<polygon fill="#999999" stroke="none" points="159.5,-138 0,-138 0,0 159.5,0 159.5,-138"/>
<text xml:space="preserve" text-anchor="start" x="4" y="-124.25" font-family="Helvetica,sans-Serif" font-size="10.00">backends::OpenGLVertexBuffer</text>
<text xml:space="preserve" text-anchor="start" x="76.75" y="-107.5" font-family="Helvetica,sans-Serif" font-size="10.00"> </text>
<text xml:space="preserve" text-anchor="start" x="9.94" y="-90.75" font-family="Helvetica,sans-Serif" font-size="10.00">+</text>
<text xml:space="preserve" text-anchor="start" x="28.12" y="-90.75" font-family="Helvetica,sans-Serif" font-size="10.00">OpenGLVertexBuffer()</text>
<text xml:space="preserve" text-anchor="start" x="9.94" y="-74" font-family="Helvetica,sans-Serif" font-size="10.00">+</text>
<text xml:space="preserve" text-anchor="start" x="28.12" y="-74" font-family="Helvetica,sans-Serif" font-size="10.00">~OpenGLVertexBuffer()</text>
<text xml:space="preserve" text-anchor="start" x="9.94" y="-57.25" font-family="Helvetica,sans-Serif" font-size="10.00">+</text>
<text xml:space="preserve" text-anchor="start" x="28.12" y="-57.25" font-family="Helvetica,sans-Serif" font-size="10.00">Bind()</text>
<text xml:space="preserve" text-anchor="start" x="9.94" y="-40.5" font-family="Helvetica,sans-Serif" font-size="10.00">+</text>
<text xml:space="preserve" text-anchor="start" x="28.12" y="-40.5" font-family="Helvetica,sans-Serif" font-size="10.00">Unbind()</text>
<text xml:space="preserve" text-anchor="start" x="9.94" y="-23.75" font-family="Helvetica,sans-Serif" font-size="10.00">+</text>
<text xml:space="preserve" text-anchor="start" x="28.12" y="-23.75" font-family="Helvetica,sans-Serif" font-size="10.00">SetLayout()</text>
<text xml:space="preserve" text-anchor="start" x="9.94" y="-7" font-family="Helvetica,sans-Serif" font-size="10.00">+</text>
<text xml:space="preserve" text-anchor="start" x="28.12" y="-7" font-family="Helvetica,sans-Serif" font-size="10.00">GetLayout()</text>
<polygon fill="#666666" stroke="#666666" points="0,-119.25 0,-119.25 159.5,-119.25 159.5,-119.25 0,-119.25"/>
<polygon fill="#666666" stroke="#666666" points="0,-102.5 0,-102.5 159.5,-102.5 159.5,-102.5 0,-102.5"/>
<polygon fill="none" stroke="#666666" points="0,0 0,-138 159.5,-138 159.5,0 0,0"/>
</a>
</g>
</g>
<!-- Node2 -->
<g id="Node000002" class="node">
<title>Node2</title>
<g id="a_Node000002"><a xlink:href="classengine_1_1VertexBuffer.html" target="_top" xlink:title=" ">
<polygon fill="white" stroke="none" points="134.38,-312 25.12,-312 25.12,-174 134.38,-174 134.38,-312"/>
<text xml:space="preserve" text-anchor="start" x="29.12" y="-298.25" font-family="Helvetica,sans-Serif" font-size="10.00">engine::VertexBuffer</text>
<text xml:space="preserve" text-anchor="start" x="76.75" y="-281.5" font-family="Helvetica,sans-Serif" font-size="10.00"> </text>
<text xml:space="preserve" text-anchor="start" x="31.88" y="-264.75" font-family="Helvetica,sans-Serif" font-size="10.00">+</text>
<text xml:space="preserve" text-anchor="start" x="46.88" y="-264.75" font-family="Helvetica,sans-Serif" font-size="10.00">~VertexBuffer()</text>
<text xml:space="preserve" text-anchor="start" x="31.88" y="-248" font-family="Helvetica,sans-Serif" font-size="10.00">+</text>
<text xml:space="preserve" text-anchor="start" x="46.88" y="-248" font-family="Helvetica,sans-Serif" font-size="10.00">Bind()</text>
<text xml:space="preserve" text-anchor="start" x="31.88" y="-231.25" font-family="Helvetica,sans-Serif" font-size="10.00">+</text>
<text xml:space="preserve" text-anchor="start" x="46.88" y="-231.25" font-family="Helvetica,sans-Serif" font-size="10.00">Unbind()</text>
<text xml:space="preserve" text-anchor="start" x="31.88" y="-214.5" font-family="Helvetica,sans-Serif" font-size="10.00">+</text>
<text xml:space="preserve" text-anchor="start" x="46.88" y="-214.5" font-family="Helvetica,sans-Serif" font-size="10.00">SetLayout()</text>
<text xml:space="preserve" text-anchor="start" x="31.88" y="-197.75" font-family="Helvetica,sans-Serif" font-size="10.00">+</text>
<text xml:space="preserve" text-anchor="start" x="46.88" y="-197.75" font-family="Helvetica,sans-Serif" font-size="10.00">GetLayout()</text>
<text xml:space="preserve" text-anchor="start" x="31.88" y="-181" font-family="Helvetica,sans-Serif" font-size="10.00">+</text>
<text xml:space="preserve" text-anchor="start" x="46.88" y="-181" font-family="Helvetica,sans-Serif" font-size="10.00">Create()</text>
<polygon fill="#bfbfbf" stroke="#bfbfbf" points="25.12,-293.25 25.12,-293.25 134.38,-293.25 134.38,-293.25 25.12,-293.25"/>
<polygon fill="#bfbfbf" stroke="#bfbfbf" points="25.12,-276.5 25.12,-276.5 134.38,-276.5 134.38,-276.5 25.12,-276.5"/>
<polygon fill="none" stroke="#bfbfbf" points="25.12,-174 25.12,-312 134.38,-312 134.38,-174 25.12,-174"/>
</a>
</g>
</g>
<!-- Node2&#45;&gt;Node1 -->
<g id="edge1_Node000001_Node000002" class="edge">
<title>Node2&#45;&gt;Node1</title>
<g id="a_edge1_Node000001_Node000002"><a xlink:title=" ">
<path fill="none" stroke="#63b8ff" d="M79.75,-162.73C79.75,-154.39 79.75,-145.96 79.75,-137.77"/>
<polygon fill="none" stroke="#63b8ff" points="76.25,-162.51 79.75,-172.51 83.25,-162.51 76.25,-162.51"/>
</a>
</g>
</g>
</g>
</svg>
