<?xml version="1.0" encoding="UTF-8" standalone="no"?>
<!DOCTYPE svg PUBLIC "-//W3C//DTD SVG 1.1//EN"
 "http://www.w3.org/Graphics/SVG/1.1/DTD/svg11.dtd">
<!-- Generated by graphviz version 15.1.0 (0)
 -->
<!-- Title: voxelgame::camera Pages: 1 -->
<svg width="113pt" height="113pt"
 viewBox="0.00 0.00 113.00 113.00" xmlns="http://www.w3.org/2000/svg" xmlns:xlink="http://www.w3.org/1999/xlink">
<g id="graph0" class="graph" transform="scale(1 1) rotate(0) translate(4 108.5)">
<title>voxelgame::camera</title>
<!-- Node1 -->
<g id="Node000001" class="node">
<title>Node1</title>
<g id="a_Node000001"><a xlink:title=" ">
<polygon fill="#999999" stroke="none" points="104.75,-104.5 0,-104.5 0,0 104.75,0 104.75,-104.5"/>
<text xml:space="preserve" text-anchor="start" x="4" y="-90.75" font-family="Helvetica,sans-Serif" font-size="10.00">voxelgame::camera</text>
<text xml:space="preserve" text-anchor="start" x="5.06" y="-74" font-family="Helvetica,sans-Serif" font-size="10.00">+</text>
<text xml:space="preserve" text-anchor="start" x="18.38" y="-74" font-family="Helvetica,sans-Serif" font-size="10.00">Position</text>
<text xml:space="preserve" text-anchor="start" x="5.06" y="-57.25" font-family="Helvetica,sans-Serif" font-size="10.00">+</text>
<text xml:space="preserve" text-anchor="start" x="18.38" y="-57.25" font-family="Helvetica,sans-Serif" font-size="10.00">Yaw</text>
<text xml:space="preserve" text-anchor="start" x="5.06" y="-40.5" font-family="Helvetica,sans-Serif" font-size="10.00">+</text>
<text xml:space="preserve" text-anchor="start" x="18.38" y="-40.5" font-family="Helvetica,sans-Serif" font-size="10.00">Pitch</text>
<text xml:space="preserve" text-anchor="start" x="5.06" y="-23.75" font-family="Helvetica,sans-Serif" font-size="10.00">+</text>
<text xml:space="preserve" text-anchor="start" x="18.38" y="-23.75" font-family="Helvetica,sans-Serif" font-size="10.00">GetViewMatrix()</text>
<text xml:space="preserve" text-anchor="start" x="5.06" y="-7" font-family="Helvetica,sans-Serif" font-size="10.00">+</text>
<text xml:space="preserve" text-anchor="start" x="18.38" y="-7" font-family="Helvetica,sans-Serif" font-size="10.00">ProcessMouse()</text>
<polygon fill="#666666" stroke="#666666" points="0,-85.75 0,-85.75 104.75,-85.75 104.75,-85.75 0,-85.75"/>
<polygon fill="#666666" stroke="#666666" points="0,-35.5 0,-35.5 16.38,-35.5 16.38,-35.5 0,-35.5"/>
<polygon fill="#666666" stroke="#666666" points="16.38,-35.5 16.38,-35.5 104.75,-35.5 104.75,-35.5 16.38,-35.5"/>
<polygon fill="none" stroke="#666666" points="0,0 0,-104.5 104.75,-104.5 104.75,0 0,0"/>
</a>
</g>
</g>
</g>
</svg>
