<?xml version="1.0" encoding="UTF-8" standalone="no"?>
<!DOCTYPE svg PUBLIC "-//W3C//DTD SVG 1.1//EN"
 "http://www.w3.org/Graphics/SVG/1.1/DTD/svg11.dtd">
<!-- Generated by graphviz version 15.1.0 (0)
 -->
<!-- Title: backends::OpenGLIndexBuffer Pages: 1 -->
<svg width="163pt" height="287pt"
 viewBox="0.00 0.00 163.00 287.00" xmlns="http://www.w3.org/2000/svg" xmlns:xlink="http://www.w3.org/1999/xlink">
<g id="graph0" class="graph" transform="scale(1 1) rotate(0) translate(4 282.5)">
<title>backends::OpenGLIndexBuffer</title>
<!-- Node1 -->
<g id="Node000001" class="node">
<title>Node1</title>
<g id="a_Node000001"><a xlink:title=" ">
<polygon fill="#999999" stroke="none" points="155,-121.25 0,-121.25 0,0 155,0 155,-121.25"/>
<text xml:space="preserve" text-anchor="start" x="4" y="-107.5" font-family="Helvetica,sans-Serif" font-size="10.00">backends::OpenGLIndexBuffer</text>
<text xml:space="preserve" text-anchor="start" x="74.5" y="-90.75" font-family="Helvetica,sans-Serif" font-size="10.00"> </text>
<text xml:space="preserve" text-anchor="start" x="9.94" y="-74" font-family="Helvetica,sans-Serif" font-size="10.00">+</text>
<text xml:space="preserve" text-anchor="start" x="28.12" y="-74" font-family="Helvetica,sans-Serif" font-size="10.00">OpenGLIndexBuffer()</text>
<text xml:space="preserve" text-anchor="start" x="9.94" y="-57.25" font-family="Helvetica,sans-Serif" font-size="10.00">+</text>
<text xml:space="preserve" text-anchor="start" x="28.12" y="-57.25" font-family="Helvetica,sans-Serif" font-size="10.00">~OpenGLIndexBuffer()</text>
<text xml:space="preserve" text-anchor="start" x="9.94" y="-40.5" font-family="Helvetica,sans-Serif" font-size="10.00">+</text>
<text xml:space="preserve" text-anchor="start" x="28.12" y="-40.5" font-family="Helvetica,sans-Serif" font-size="10.00">Bind()</text>
<text xml:space="preserve" text-anchor="start" x="9.94" y="-23.75" font-family="Helvetica,sans-Serif" font-size="10.00">+</text>
<text xml:space="preserve" text-anchor="start" x="28.12" y="-23.75" font-family="Helvetica,sans-Serif" font-size="10.00">Unbind()</text>
<text xml:space="preserve" text-anchor="start" x="9.94" y="-7" font-family="Helvetica,sans-Serif" font-size="10.00">+</text>
<text xml:space="preserve" text-anchor="start" x="28.12" y="-7" font-family="Helvetica,sans-Serif" font-size="10.00">GetCount()</text>
<polygon fill="#666666" stroke="#666666" points="0,-102.5 0,-102.5 155,-102.5 155,-102.5 0,-102.5"/>
<polygon fill="#666666" stroke="#666666" points="0,-85.75 0,-85.75 155,-85.75 155,-85.75 0,-85.75"/>
<polygon fill="none" stroke="#666666" points="0,0 0,-121.25 155,-121.25 155,0 0,0"/>
</a>
</g>
</g>
<!-- Node2 -->
<g id="Node000002" class="node">
<title>Node2</title>
<g id="a_Node000002"><a xlink:href="classengine_1_1IndexBuffer.html" target="_top" xlink:title=" ">
<polygon fill="white" stroke="none" points="129.5,-278.5 25.5,-278.5 25.5,-157.25 129.5,-157.25 129.5,-278.5"/>
<text xml:space="preserve" text-anchor="start" x="29.5" y="-264.75" font-family="Helvetica,sans-Serif" font-size="10.00">engine::IndexBuffer</text>
<text xml:space="preserve" text-anchor="start" x="74.5" y="-248" font-family="Helvetica,sans-Serif" font-size="10.00"> </text>
<text xml:space="preserve" text-anchor="start" x="32.25" y="-231.25" font-family="Helvetica,sans-Serif" font-size="10.00">+</text>
<text xml:space="preserve" text-anchor="start" x="47.25" y="-231.25" font-family="Helvetica,sans-Serif" font-size="10.00">~IndexBuffer()</text>
<text xml:space="preserve" text-anchor="start" x="32.25" y="-214.5" font-family="Helvetica,sans-Serif" font-size="10.00">+</text>
<text xml:space="preserve" text-anchor="start" x="47.25" y="-214.5" font-family="Helvetica,sans-Serif" font-size="10.00">Bind()</text>
<text xml:space="preserve" text-anchor="start" x="32.25" y="-197.75" font-family="Helvetica,sans-Serif" font-size="10.00">+</text>
<text xml:space="preserve" text-anchor="start" x="47.25" y="-197.75" font-family="Helvetica,sans-Serif" font-size="10.00">Unbind()</text>
<text xml:space="preserve" text-anchor="start" x="32.25" y="-181" font-family="Helvetica,sans-Serif" font-size="10.00">+</text>
<text xml:space="preserve" text-anchor="start" x="47.25" y="-181" font-family="Helvetica,sans-Serif" font-size="10.00">GetCount()</text>
<text xml:space="preserve" text-anchor="start" x="32.25" y="-164.25" font-family="Helvetica,sans-Serif" font-size="10.00">+</text>
<text xml:space="preserve" text-anchor="start" x="47.25" y="-164.25" font-family="Helvetica,sans-Serif" font-size="10.00">Create()</text>
<polygon fill="#bfbfbf" stroke="#bfbfbf" points="25.5,-259.75 25.5,-259.75 129.5,-259.75 129.5,-259.75 25.5,-259.75"/>
<polygon fill="#bfbfbf" stroke="#bfbfbf" points="25.5,-243 25.5,-243 129.5,-243 129.5,-243 25.5,-243"/>
<polygon fill="none" stroke="#bfbfbf" points="25.5,-157.25 25.5,-278.5 129.5,-278.5 129.5,-157.25 25.5,-157.25"/>
</a>
</g>
</g>
<!-- Node2&#45;&gt;Node1 -->
<g id="edge1_Node000001_Node000002" class="edge">
<title>Node2&#45;&gt;Node1</title>
<g id="a_edge1_Node000001_Node000002"><a xlink:title=" ">
<path fill="none" stroke="#63b8ff" d="M77.5,-146.01C77.5,-137.67 77.5,-129.21 77.5,-121.05"/>
<polygon fill="none" stroke="#63b8ff" points="74,-145.78 77.5,-155.78 81,-145.78 74,-145.78"/>
</a>
</g>
</g>
</g>
</svg>
