<?xml version="1.0" encoding="UTF-8" standalone="no"?>
<!DOCTYPE svg PUBLIC "-//W3C//DTD SVG 1.1//EN"
 "http://www.w3.org/Graphics/SVG/1.1/DTD/svg11.dtd">
<!-- Generated by graphviz version 15.1.0 (0)
 -->
<!-- Title: backends::OpenGLRenderer Pages: 1 -->
<svg width="150pt" height="387pt"
 viewBox="0.00 0.00 150.00 387.00" xmlns="http://www.w3.org/2000/svg" xmlns:xlink="http://www.w3.org/1999/xlink">
<g id="graph0" class="graph" transform="scale(1 1) rotate(0) translate(4 383)">
<title>backends::OpenGLRenderer</title>
<!-- Node1 -->
<g id="Node000001" class="node">
<title>Node1</title>
<g id="a_Node000001"><a xlink:title=" ">
<polygon fill="#999999" stroke="none" points="142.25,-171.5 0,-171.5 0,0 142.25,0 142.25,-171.5"/>
<text xml:space="preserve" text-anchor="start" x="4" y="-157.75" font-family="Helvetica,sans-Serif" font-size="10.00">backends::OpenGLRenderer</text>
<text xml:space="preserve" text-anchor="start" x="68.12" y="-141" font-family="Helvetica,sans-Serif" font-size="10.00"> </text>
<text xml:space="preserve" text-anchor="start" x="9.94" y="-124.25" font-family="Helvetica,sans-Serif" font-size="10.00">+</text>
<text xml:space="preserve" text-anchor="start" x="28.12" y="-124.25" font-family="Helvetica,sans-Serif" font-size="10.00">OpenGLRenderer()</text>
<text xml:space="preserve" text-anchor="start" x="9.94" y="-107.5" font-family="Helvetica,sans-Serif" font-size="10.00">+</text>
<text xml:space="preserve" text-anchor="start" x="28.12" y="-107.5" font-family="Helvetica,sans-Serif" font-size="10.00">~OpenGLRenderer()</text>
<text xml:space="preserve" text-anchor="start" x="9.94" y="-90.75" font-family="Helvetica,sans-Serif" font-size="10.00">+</text>
<text xml:space="preserve" text-anchor="start" x="28.12" y="-90.75" font-family="Helvetica,sans-Serif" font-size="10.00">Init()</text>
<text xml:space="preserve" text-anchor="start" x="9.94" y="-74" font-family="Helvetica,sans-Serif" font-size="10.00">+</text>
<text xml:space="preserve" text-anchor="start" x="28.12" y="-74" font-family="Helvetica,sans-Serif" font-size="10.00">BeginFrame()</text>
<text xml:space="preserve" text-anchor="start" x="9.94" y="-57.25" font-family="Helvetica,sans-Serif" font-size="10.00">+</text>
<text xml:space="preserve" text-anchor="start" x="28.12" y="-57.25" font-family="Helvetica,sans-Serif" font-size="10.00">EndFrame()</text>
<text xml:space="preserve" text-anchor="start" x="9.94" y="-40.5" font-family="Helvetica,sans-Serif" font-size="10.00">+</text>
<text xml:space="preserve" text-anchor="start" x="28.12" y="-40.5" font-family="Helvetica,sans-Serif" font-size="10.00">OnResize()</text>
<text xml:space="preserve" text-anchor="start" x="9.94" y="-23.75" font-family="Helvetica,sans-Serif" font-size="10.00">+</text>
<text xml:space="preserve" text-anchor="start" x="28.12" y="-23.75" font-family="Helvetica,sans-Serif" font-size="10.00">GetProjection()</text>
<text xml:space="preserve" text-anchor="start" x="9.94" y="-7" font-family="Helvetica,sans-Serif" font-size="10.00">+</text>
<text xml:space="preserve" text-anchor="start" x="28.12" y="-7" font-family="Helvetica,sans-Serif" font-size="10.00">DrawIndexed()</text>
<polygon fill="#666666" stroke="#666666" points="0,-152.75 0,-152.75 142.25,-152.75 142.25,-152.75 0,-152.75"/>
<polygon fill="#666666" stroke="#666666" points="0,-136 0,-136 142.25,-136 142.25,-136 0,-136"/>
<polygon fill="none" stroke="#666666" points="0,0 0,-171.5 142.25,-171.5 142.25,0 0,0"/>
</a>
</g>
</g>
<!-- Node2 -->
<g id="Node000002" class="node">
<title>Node2</title>
<g id="a_Node000002"><a xlink:href="classengine_1_1Renderer.html" target="_top" xlink:title=" ">
<polygon fill="white" stroke="none" points="118,-379 24.25,-379 24.25,-207.5 118,-207.5 118,-379"/>
<text xml:space="preserve" text-anchor="start" x="29.5" y="-365.25" font-family="Helvetica,sans-Serif" font-size="10.00">engine::Renderer</text>
<text xml:space="preserve" text-anchor="start" x="68.12" y="-348.5" font-family="Helvetica,sans-Serif" font-size="10.00"> </text>
<text xml:space="preserve" text-anchor="start" x="28.25" y="-331.75" font-family="Helvetica,sans-Serif" font-size="10.00">+</text>
<text xml:space="preserve" text-anchor="start" x="40.5" y="-331.75" font-family="Helvetica,sans-Serif" font-size="10.00">~Renderer()</text>
<text xml:space="preserve" text-anchor="start" x="28.25" y="-315" font-family="Helvetica,sans-Serif" font-size="10.00">+</text>
<text xml:space="preserve" text-anchor="start" x="40.5" y="-315" font-family="Helvetica,sans-Serif" font-size="10.00">Init()</text>
<text xml:space="preserve" text-anchor="start" x="28.25" y="-298.25" font-family="Helvetica,sans-Serif" font-size="10.00">+</text>
<text xml:space="preserve" text-anchor="start" x="40.5" y="-298.25" font-family="Helvetica,sans-Serif" font-size="10.00">BeginFrame()</text>
<text xml:space="preserve" text-anchor="start" x="28.25" y="-281.5" font-family="Helvetica,sans-Serif" font-size="10.00">+</text>
<text xml:space="preserve" text-anchor="start" x="40.5" y="-281.5" font-family="Helvetica,sans-Serif" font-size="10.00">EndFrame()</text>
<text xml:space="preserve" text-anchor="start" x="28.25" y="-264.75" font-family="Helvetica,sans-Serif" font-size="10.00">+</text>
<text xml:space="preserve" text-anchor="start" x="40.5" y="-264.75" font-family="Helvetica,sans-Serif" font-size="10.00">OnResize()</text>
<text xml:space="preserve" text-anchor="start" x="28.25" y="-248" font-family="Helvetica,sans-Serif" font-size="10.00">+</text>
<text xml:space="preserve" text-anchor="start" x="40.5" y="-248" font-family="Helvetica,sans-Serif" font-size="10.00">GetProjection()</text>
<text xml:space="preserve" text-anchor="start" x="28.25" y="-231.25" font-family="Helvetica,sans-Serif" font-size="10.00">+</text>
<text xml:space="preserve" text-anchor="start" x="40.5" y="-231.25" font-family="Helvetica,sans-Serif" font-size="10.00">DrawIndexed()</text>
<text xml:space="preserve" text-anchor="start" x="28.25" y="-214.5" font-family="Helvetica,sans-Serif" font-size="10.00">+</text>
<text xml:space="preserve" text-anchor="start" x="40.5" y="-214.5" font-family="Helvetica,sans-Serif" font-size="10.00">Create()</text>
<polygon fill="#bfbfbf" stroke="#bfbfbf" points="24.25,-360.25 24.25,-360.25 118,-360.25 118,-360.25 24.25,-360.25"/>
<polygon fill="#bfbfbf" stroke="#bfbfbf" points="24.25,-343.5 24.25,-343.5 118,-343.5 118,-343.5 24.25,-343.5"/>
<polygon fill="none" stroke="#bfbfbf" points="24.25,-207.5 24.25,-379 118,-379 118,-207.5 24.25,-207.5"/>
</a>
</g>
</g>
<!-- Node2&#45;&gt;Node1 -->
<g id="edge1_Node000001_Node000002" class="edge">
<title>Node2&#45;&gt;Node1</title>
<g id="a_edge1_Node000001_Node000002"><a xlink:title=" ">
<path fill="none" stroke="#63b8ff" d="M71.12,-196.38C71.12,-187.98 71.12,-179.52 71.12,-171.23"/>
<polygon fill="none" stroke="#63b8ff" points="67.63,-196.26 71.13,-206.26 74.63,-196.26 67.63,-196.26"/>
</a>
</g>
</g>
</g>
</svg>
