<?xml version="1.0" encoding="UTF-8" standalone="no"?>
<!DOCTYPE svg PUBLIC "-//W3C//DTD SVG 1.1//EN"
 "http://www.w3.org/Graphics/SVG/1.1/DTD/svg11.dtd">
<!-- Generated by graphviz version 15.1.0 (0)
 -->
<!-- Title: engine::AssetManager Pages: 1 -->
<svg width="130pt" height="220pt"
 viewBox="0.00 0.00 130.00 220.00" xmlns="http://www.w3.org/2000/svg" xmlns:xlink="http://www.w3.org/1999/xlink">

<svg id="main" version="1.1" xmlns="http://www.w3.org/2000/svg" xmlns:xlink="http://www.w3.org/1999/xlink" xml:space="preserve">

<style type="text/css"><![CDATA[
.node, .edge {opacity: 0.7;}
.node.selected, .edge.selected {opacity: 1;}
.edge:hover path { stroke: red; }
.edge:hover polygon { stroke: red; fill: red; }
]]></style>
<script type="application/ecmascript" xlink:href="svg.min.js"/>
<svg id="graph" class="graph">
<g id="graph0" class="graph" transform="scale(1 1) rotate(0) translate(4 215.5)">
<title>engine::AssetManager</title>
<!-- Node1 -->
<g id="Node000001" class="node">
<title>Node1</title>
<g id="a_Node000001"><a xlink:title=" ">
<polygon fill="#999999" stroke="none" points="121.5,-121.25 0,-121.25 0,0 121.5,0 121.5,-121.25"/>
<text xml:space="preserve" text-anchor="start" x="6.38" y="-107.5" font-family="Helvetica,sans-Serif" font-size="10.00">engine::AssetManager</text>
<text xml:space="preserve" text-anchor="start" x="57.75" y="-90.75" font-family="Helvetica,sans-Serif" font-size="10.00"> </text>
<text xml:space="preserve" text-anchor="start" x="4" y="-74" font-family="Helvetica,sans-Serif" font-size="10.00">+</text>
<text xml:space="preserve" text-anchor="start" x="16.25" y="-74" font-family="Helvetica,sans-Serif" font-size="10.00">AssetManager()</text>
<text xml:space="preserve" text-anchor="start" x="4" y="-57.25" font-family="Helvetica,sans-Serif" font-size="10.00">+</text>
<text xml:space="preserve" text-anchor="start" x="16.25" y="-57.25" font-family="Helvetica,sans-Serif" font-size="10.00">~AssetManager()</text>
<text xml:space="preserve" text-anchor="start" x="4" y="-40.5" font-family="Helvetica,sans-Serif" font-size="10.00">+</text>
<text xml:space="preserve" text-anchor="start" x="16.25" y="-40.5" font-family="Helvetica,sans-Serif" font-size="10.00">SetAssetRoot()</text>
<text xml:space="preserve" text-anchor="start" x="4" y="-23.75" font-family="Helvetica,sans-Serif" font-size="10.00">+</text>
<text xml:space="preserve" text-anchor="start" x="16.25" y="-23.75" font-family="Helvetica,sans-Serif" font-size="10.00">GetAssetRoot()</text>
<text xml:space="preserve" text-anchor="start" x="4" y="-7" font-family="Helvetica,sans-Serif" font-size="10.00">+</text>
<text xml:space="preserve" text-anchor="start" x="16.25" y="-7" font-family="Helvetica,sans-Serif" font-size="10.00">GetShaderManager()</text>
<polygon fill="#666666" stroke="#666666" points="0,-102.5 0,-102.5 121.5,-102.5 121.5,-102.5 0,-102.5"/>
<polygon fill="#666666" stroke="#666666" points="0,-85.75 0,-85.75 121.5,-85.75 121.5,-85.75 0,-85.75"/>
<polygon fill="none" stroke="#666666" points="0,0 0,-121.25 121.5,-121.25 121.5,0 0,0"/>
</a>
</g>
</g>
<!-- Node2 -->
<g id="Node000002" class="node">
<title>Node2</title>
<g id="a_Node000002"><a xlink:href="classengine_1_1IAssetProvider.html" target="_top" xlink:title=" ">
<polygon fill="white" stroke="none" points="119.5,-211.5 2,-211.5 2,-157.25 119.5,-157.25 119.5,-211.5"/>
<text xml:space="preserve" text-anchor="start" x="6" y="-197.75" font-family="Helvetica,sans-Serif" font-size="10.00">engine::IAssetProvider</text>
<text xml:space="preserve" text-anchor="start" x="57.75" y="-181" font-family="Helvetica,sans-Serif" font-size="10.00"> </text>
<text xml:space="preserve" text-anchor="start" x="11.75" y="-164.25" font-family="Helvetica,sans-Serif" font-size="10.00">+</text>
<text xml:space="preserve" text-anchor="start" x="29.75" y="-164.25" font-family="Helvetica,sans-Serif" font-size="10.00">GetAssetRoot()</text>
<polygon fill="#bfbfbf" stroke="#bfbfbf" points="2,-192.75 2,-192.75 119.5,-192.75 119.5,-192.75 2,-192.75"/>
<polygon fill="#bfbfbf" stroke="#bfbfbf" points="2,-176 2,-176 119.5,-176 119.5,-176 2,-176"/>
<polygon fill="none" stroke="#bfbfbf" points="2,-157.25 2,-211.5 119.5,-211.5 119.5,-157.25 2,-157.25"/>
</a>
</g>
</g>
<!-- Node2&#45;&gt;Node1 -->
<g id="edge1_Node000001_Node000002" class="edge">
<title>Node2&#45;&gt;Node1</title>
<g id="a_edge1_Node000001_Node000002"><a xlink:title=" ">
<path fill="none" stroke="#63b8ff" d="M60.75,-145.92C60.75,-138.08 60.75,-129.64 60.75,-121.22"/>
<polygon fill="none" stroke="#63b8ff" points="57.25,-145.74 60.75,-155.74 64.25,-145.74 57.25,-145.74"/>
</a>
</g>
</g>
</g>
</svg>
</svg>

<style type='text/css'>
<![CDATA[
[data-mouse-over-selected='false'] { opacity: 0.7; }
[data-mouse-over-selected='true']  { opacity: 1.0; }
]]>
</style>
<script type="application/ecmascript"><![CDATA[
document.addEventListener('DOMContentLoaded', (event) => {
  highlightEdges();
  highlightAdjacentNodes();
});
]]></script>
</svg>
