<?xml version="1.0" encoding="UTF-8" standalone="no"?>
<!DOCTYPE svg PUBLIC "-//W3C//DTD SVG 1.1//EN"
 "http://www.w3.org/Graphics/SVG/1.1/DTD/svg11.dtd">
<!-- Generated by graphviz version 15.1.0 (0)
 -->
<!-- Title: engine::Binding Pages: 1 -->
<svg width="92pt" height="79pt"
 viewBox="0.00 0.00 92.00 79.00" xmlns="http://www.w3.org/2000/svg" xmlns:xlink="http://www.w3.org/1999/xlink">
<g id="graph0" class="graph" transform="scale(1 1) rotate(0) translate(4 75)">
<title>engine::Binding</title>
<!-- Node1 -->
<g id="Node000001" class="node">
<title>Node1</title>
<g id="a_Node000001"><a xlink:title=" ">
<polygon fill="#999999" stroke="none" points="83.75,-71 0,-71 0,0 83.75,0 83.75,-71"/>
<text xml:space="preserve" text-anchor="start" x="4" y="-57.25" font-family="Helvetica,sans-Serif" font-size="10.00">engine::Binding</text>
<text xml:space="preserve" text-anchor="start" x="9.75" y="-40.5" font-family="Helvetica,sans-Serif" font-size="10.00">+</text>
<text xml:space="preserve" text-anchor="start" x="27.75" y="-40.5" font-family="Helvetica,sans-Serif" font-size="10.00">code</text>
<text xml:space="preserve" text-anchor="start" x="9.75" y="-23.75" font-family="Helvetica,sans-Serif" font-size="10.00">+</text>
<text xml:space="preserve" text-anchor="start" x="27.75" y="-23.75" font-family="Helvetica,sans-Serif" font-size="10.00">isMouse</text>
<text xml:space="preserve" text-anchor="start" x="38.88" y="-7" font-family="Helvetica,sans-Serif" font-size="10.00"> </text>
<polygon fill="#666666" stroke="#666666" points="0,-52.25 0,-52.25 83.75,-52.25 83.75,-52.25 0,-52.25"/>
<polygon fill="#666666" stroke="#666666" points="0,-18.75 0,-18.75 25.75,-18.75 25.75,-18.75 0,-18.75"/>
<polygon fill="#666666" stroke="#666666" points="25.75,-18.75 25.75,-18.75 83.75,-18.75 83.75,-18.75 25.75,-18.75"/>
<polygon fill="none" stroke="#666666" points="0,0 0,-71 83.75,-71 83.75,0 0,0"/>
</a>
</g>
</g>
</g>
</svg>
