<?xml version="1.0" encoding="UTF-8" standalone="no"?>
<!DOCTYPE svg PUBLIC "-//W3C//DTD SVG 1.1//EN"
 "http://www.w3.org/Graphics/SVG/1.1/DTD/svg11.dtd">
<!-- Generated by graphviz version 15.1.0 (0)
 -->
<!-- Title: engine::AppSettings Pages: 1 -->
<svg width="293pt" height="289pt"
 viewBox="0.00 0.00 293.00 289.00" xmlns="http://www.w3.org/2000/svg" xmlns:xlink="http://www.w3.org/1999/xlink">
<g id="graph0" class="graph" transform="scale(1 1) rotate(0) translate(4 284.5)">
<title>engine::AppSettings</title>
<!-- Node1 -->
<g id="Node000001" class="node">
<title>Node1</title>
<g id="a_Node000001"><a xlink:title=" ">
<polygon fill="#999999" stroke="none" points="213.75,-87.75 63.75,-87.75 63.75,0 213.75,0 213.75,-87.75"/>
<text xml:space="preserve" text-anchor="start" x="90" y="-74" font-family="Helvetica,sans-Serif" font-size="10.00">engine::AppSettings</text>
<text xml:space="preserve" text-anchor="start" x="135.75" y="-57.25" font-family="Helvetica,sans-Serif" font-size="10.00"> </text>
<text xml:space="preserve" text-anchor="start" x="67.75" y="-40.5" font-family="Helvetica,sans-Serif" font-size="10.00">+</text>
<text xml:space="preserve" text-anchor="start" x="80" y="-40.5" font-family="Helvetica,sans-Serif" font-size="10.00">AppSettings()</text>
<text xml:space="preserve" text-anchor="start" x="67.75" y="-23.75" font-family="Helvetica,sans-Serif" font-size="10.00">+</text>
<text xml:space="preserve" text-anchor="start" x="80" y="-23.75" font-family="Helvetica,sans-Serif" font-size="10.00">GetWindowConfiguration()</text>
<text xml:space="preserve" text-anchor="start" x="67.75" y="-7" font-family="Helvetica,sans-Serif" font-size="10.00">+</text>
<text xml:space="preserve" text-anchor="start" x="80" y="-7" font-family="Helvetica,sans-Serif" font-size="10.00">GetExtra()</text>
<polygon fill="#666666" stroke="#666666" points="63.75,-69 63.75,-69 213.75,-69 213.75,-69 63.75,-69"/>
<polygon fill="#666666" stroke="#666666" points="63.75,-52.25 63.75,-52.25 213.75,-52.25 213.75,-52.25 63.75,-52.25"/>
<polygon fill="none" stroke="#666666" points="63.75,0 63.75,-87.75 213.75,-87.75 213.75,0 63.75,0"/>
</a>
</g>
</g>
<!-- Node2 -->
<g id="Node000002" class="node">
<title>Node2</title>
<g id="a_Node000002"><a xlink:href="structengine_1_1WindowConfig.html" target="_top" xlink:title=" ">
<polygon fill="white" stroke="none" points="117.5,-280.5 0,-280.5 0,-142.5 117.5,-142.5 117.5,-280.5"/>
<text xml:space="preserve" text-anchor="start" x="4" y="-266.75" font-family="Helvetica,sans-Serif" font-size="10.00">engine::WindowConfig</text>
<text xml:space="preserve" text-anchor="start" x="4.31" y="-250" font-family="Helvetica,sans-Serif" font-size="10.00">+</text>
<text xml:space="preserve" text-anchor="start" x="16.88" y="-250" font-family="Helvetica,sans-Serif" font-size="10.00">m_windowWidth</text>
<text xml:space="preserve" text-anchor="start" x="4.31" y="-233.25" font-family="Helvetica,sans-Serif" font-size="10.00">+</text>
<text xml:space="preserve" text-anchor="start" x="16.88" y="-233.25" font-family="Helvetica,sans-Serif" font-size="10.00">m_windowHeight</text>
<text xml:space="preserve" text-anchor="start" x="4.31" y="-216.5" font-family="Helvetica,sans-Serif" font-size="10.00">+</text>
<text xml:space="preserve" text-anchor="start" x="16.88" y="-216.5" font-family="Helvetica,sans-Serif" font-size="10.00">m_title</text>
<text xml:space="preserve" text-anchor="start" x="4.31" y="-199.75" font-family="Helvetica,sans-Serif" font-size="10.00">+</text>
<text xml:space="preserve" text-anchor="start" x="16.88" y="-199.75" font-family="Helvetica,sans-Serif" font-size="10.00">WindowConfig()</text>
<text xml:space="preserve" text-anchor="start" x="4.31" y="-183" font-family="Helvetica,sans-Serif" font-size="10.00">+</text>
<text xml:space="preserve" text-anchor="start" x="16.88" y="-183" font-family="Helvetica,sans-Serif" font-size="10.00">GetWindowWidth()</text>
<text xml:space="preserve" text-anchor="start" x="4.31" y="-166.25" font-family="Helvetica,sans-Serif" font-size="10.00">+</text>
<text xml:space="preserve" text-anchor="start" x="16.88" y="-166.25" font-family="Helvetica,sans-Serif" font-size="10.00">GetWindowHeight()</text>
<text xml:space="preserve" text-anchor="start" x="4.31" y="-149.5" font-family="Helvetica,sans-Serif" font-size="10.00">+</text>
<text xml:space="preserve" text-anchor="start" x="16.88" y="-149.5" font-family="Helvetica,sans-Serif" font-size="10.00">GetTitle()</text>
<polygon fill="#bfbfbf" stroke="#bfbfbf" points="0,-261.75 0,-261.75 117.5,-261.75 117.5,-261.75 0,-261.75"/>
<polygon fill="#bfbfbf" stroke="#bfbfbf" points="0,-211.5 0,-211.5 14.88,-211.5 14.88,-211.5 0,-211.5"/>
<polygon fill="#bfbfbf" stroke="#bfbfbf" points="14.88,-211.5 14.88,-211.5 117.5,-211.5 117.5,-211.5 14.88,-211.5"/>
<polygon fill="none" stroke="#bfbfbf" points="0,-142.5 0,-280.5 117.5,-280.5 117.5,-142.5 0,-142.5"/>
</a>
</g>
</g>
<!-- Node2&#45;&gt;Node1 -->
<g id="edge1_Node000001_Node000002" class="edge">
<title>Node2&#45;&gt;Node1</title>
<g id="a_edge1_Node000001_Node000002"><a xlink:title=" ">
<path fill="none" stroke="#63b8ff" d="M50.99,-142.73C51.92,-129.95 54.61,-117.06 60.25,-105.75 61.65,-102.95 63.24,-100.24 64.99,-97.63"/>
<polygon fill="none" stroke="#63b8ff" points="65.06,-97.54 65.62,-90.35 72.47,-88.1 71.91,-95.29 65.06,-97.54"/>
</a>
</g>
<text xml:space="preserve" text-anchor="start" x="63.25" y="-111.75" font-family="Helvetica,sans-Serif" font-size="10.00" fill="grey">+m_window_configuration</text>
</g>
<!-- Node3 -->
<g id="Node000003" class="node">
<title>Node3</title>
<g id="a_Node000003"><a xlink:href="structengine_1_1AdditionalParams.html" target="_top" xlink:title=" ">
<polygon fill="white" stroke="none" points="285.38,-255.38 152.12,-255.38 152.12,-167.62 285.38,-167.62 285.38,-255.38"/>
<text xml:space="preserve" text-anchor="start" x="156.12" y="-241.62" font-family="Helvetica,sans-Serif" font-size="10.00">engine::AdditionalParams</text>
<text xml:space="preserve" text-anchor="start" x="157.75" y="-224.88" font-family="Helvetica,sans-Serif" font-size="10.00">+</text>
<text xml:space="preserve" text-anchor="start" x="171.62" y="-224.88" font-family="Helvetica,sans-Serif" font-size="10.00">m_memoryBudgetMB</text>
<text xml:space="preserve" text-anchor="start" x="157.75" y="-208.12" font-family="Helvetica,sans-Serif" font-size="10.00">+</text>
<text xml:space="preserve" text-anchor="start" x="171.62" y="-208.12" font-family="Helvetica,sans-Serif" font-size="10.00">m_debugMode</text>
<text xml:space="preserve" text-anchor="start" x="157.75" y="-191.38" font-family="Helvetica,sans-Serif" font-size="10.00">+</text>
<text xml:space="preserve" text-anchor="start" x="171.62" y="-191.38" font-family="Helvetica,sans-Serif" font-size="10.00">GetMemoryBudget()</text>
<text xml:space="preserve" text-anchor="start" x="157.75" y="-174.62" font-family="Helvetica,sans-Serif" font-size="10.00">+</text>
<text xml:space="preserve" text-anchor="start" x="171.62" y="-174.62" font-family="Helvetica,sans-Serif" font-size="10.00">IsDebugModeActive()</text>
<polygon fill="#bfbfbf" stroke="#bfbfbf" points="152.12,-236.62 152.12,-236.62 285.38,-236.62 285.38,-236.62 152.12,-236.62"/>
<polygon fill="#bfbfbf" stroke="#bfbfbf" points="152.12,-203.12 152.12,-203.12 169.62,-203.12 169.62,-203.12 152.12,-203.12"/>
<polygon fill="#bfbfbf" stroke="#bfbfbf" points="169.62,-203.12 169.62,-203.12 285.38,-203.12 285.38,-203.12 169.62,-203.12"/>
<polygon fill="none" stroke="#bfbfbf" points="152.12,-167.62 152.12,-255.38 285.38,-255.38 285.38,-167.62 152.12,-167.62"/>
</a>
</g>
</g>
<!-- Node3&#45;&gt;Node1 -->
<g id="edge2_Node000001_Node000003" class="edge">
<title>Node3&#45;&gt;Node1</title>
<g id="a_edge2_Node000001_Node000003"><a xlink:title=" ">
<path fill="none" stroke="#63b8ff" d="M215.17,-167.64C212.19,-147.92 206.74,-124.75 196.75,-105.75 195.35,-103.08 193.79,-100.44 192.12,-97.85"/>
<polygon fill="none" stroke="#63b8ff" points="192.2,-97.97 185.45,-95.43 185.19,-88.23 191.94,-90.76 192.2,-97.97"/>
</a>
</g>
<text xml:space="preserve" text-anchor="start" x="207.8" y="-111.75" font-family="Helvetica,sans-Serif" font-size="10.00" fill="grey">+m_extra</text>
</g>
</g>
</svg>
